<svg width="12" height="12" viewBox="0 0 12 12" fill="none" xmlns="http://www.w3.org/2000/svg">
<path d="M8.75824 0.166687C8.46191 0.166687 8.21274 0.388217 8.17832 0.6828L8.1544 0.887878C7.87247 0.985872 7.61778 1.13514 7.39675 1.32652L7.20648 1.24449C6.93465 1.12724 6.61751 1.23163 6.46934 1.4883L6.31097 1.76174C6.16339 2.01841 6.23192 2.34492 6.46934 2.52167L6.62884 2.64016C6.60118 2.78382 6.58327 2.93162 6.58327 3.08335C6.58327 3.23508 6.60118 3.38289 6.62884 3.52655L6.46934 3.64504C6.23134 3.82179 6.16281 4.1483 6.31097 4.40497L6.46934 4.67954C6.61751 4.93621 6.93465 5.04061 7.20648 4.92336L7.39675 4.84019C7.61804 5.0318 7.8732 5.18084 8.15554 5.27883L8.17946 5.48391C8.2133 5.77849 8.46191 6.00002 8.75824 6.00002H9.07497C9.3713 6.00002 9.62047 5.77849 9.65489 5.48391L9.67881 5.27883C9.96074 5.18084 10.2154 5.03157 10.4365 4.84019L10.6267 4.92222C10.8986 5.03947 11.2157 4.93507 11.3639 4.67841L11.5222 4.40497C11.6698 4.1483 11.6013 3.82179 11.3639 3.64504L11.2044 3.52655C11.232 3.38289 11.2499 3.23508 11.2499 3.08335C11.2499 2.93162 11.232 2.78382 11.2044 2.64016L11.3639 2.52167C11.6019 2.34492 11.6704 2.01841 11.5222 1.76174L11.3639 1.48716C11.2157 1.2305 10.8986 1.1261 10.6267 1.24335L10.4365 1.32652C10.2152 1.13491 9.96001 0.985863 9.67767 0.887878L9.65375 0.6828C9.61991 0.388217 9.3713 0.166687 9.07497 0.166687H8.75824ZM8.9166 2.06252C9.4801 2.06252 9.93744 2.51985 9.93744 3.08335C9.93744 3.64744 9.4801 4.10419 8.9166 4.10419C8.3531 4.10419 7.89577 3.64744 7.89577 3.08335C7.89577 2.51985 8.3531 2.06252 8.9166 2.06252ZM3.50824 4.25002C3.21191 4.25002 2.96274 4.47155 2.92832 4.76613L2.8725 5.24807C2.40183 5.38197 1.97641 5.62135 1.63519 5.95331L1.19883 5.76532C0.926998 5.64807 0.609857 5.75247 0.46169 6.00913L0.303324 6.28257C0.155741 6.53924 0.224273 6.86575 0.46169 7.0425L0.84792 7.32961C0.790069 7.55872 0.749939 7.79463 0.749939 8.04169C0.749939 8.28875 0.790069 8.52465 0.84792 8.75376L0.46169 9.04087C0.22369 9.21762 0.155157 9.54413 0.303324 9.8008L0.46169 10.0742C0.609857 10.3309 0.926998 10.4353 1.19883 10.3181L1.63519 10.1301C1.97641 10.462 2.40183 10.7014 2.8725 10.8353L2.92946 11.3172C2.9633 11.6118 3.21191 11.8334 3.50824 11.8334H3.82497C4.1213 11.8334 4.37047 11.6118 4.40489 11.3172L4.46071 10.8353C4.93138 10.7014 5.3568 10.462 5.69802 10.1301L6.13438 10.3181C6.40621 10.4353 6.72335 10.3309 6.87152 10.0742L7.02989 9.8008C7.17747 9.54413 7.10894 9.21762 6.87152 9.04087L6.48529 8.75376C6.54314 8.52465 6.58327 8.28875 6.58327 8.04169C6.58327 7.79463 6.54314 7.55872 6.48529 7.32961L6.87152 7.0425C7.10952 6.86575 7.17805 6.53924 7.02989 6.28257L6.87152 6.00913C6.72335 5.75247 6.40621 5.64807 6.13438 5.76532L5.69802 5.95331C5.3568 5.62135 4.93138 5.38197 4.46071 5.24807L4.40375 4.76613C4.36991 4.47155 4.1213 4.25002 3.82497 4.25002H3.50824ZM3.6666 6.87502C4.31119 6.87502 4.83327 7.3971 4.83327 8.04169C4.83327 8.68627 4.31119 9.20835 3.6666 9.20835C3.02202 9.20835 2.49994 8.68627 2.49994 8.04169C2.49994 7.3971 3.02202 6.87502 3.6666 6.87502Z" fill="#cbd5e0"/>
</svg>
