<?xml version="1.0" encoding="UTF-8"?>
<svg width="218px" height="33px" viewBox="0 0 218 33" version="1.1" xmlns="http://www.w3.org/2000/svg" xmlns:xlink="http://www.w3.org/1999/xlink">
    <title>nuxt: logo-dark</title>
    <g id="nuxt:-logo-dark" stroke="none" stroke-width="1" fill="none" fill-rule="evenodd">
        <g id="Logo" transform="translate(1.000000, 1.000000)" fill-rule="nonzero">
            <path d="M40.9911174,21.1544743 C43.6544671,21.1544743 45.2205168,19.8813931 45.2258435,17.8838808 C45.2205168,16.0674763 43.851555,15.1033437 41.95525,14.6772077 L40.9751373,14.442833 C40.0269848,14.2244383 39.2333066,13.8728761 39.2492867,13.0898513 C39.2492867,12.386727 39.8725105,11.8700371 41.0017708,11.8700371 C42.1043976,11.8700371 42.7808884,12.3707469 42.8661156,13.2283455 L45.0766959,13.2283455 C45.0447357,11.2841002 43.4467259,9.94177191 41.0177509,9.94177191 C38.6260628,9.94177191 36.8735787,11.2627934 36.8842321,13.2443256 C36.8789054,14.8529888 38.0134924,15.7745078 39.8565304,16.2166239 L41.0443844,16.5149191 C42.2322384,16.8025608 42.8927491,17.1434696 42.8980758,17.8785541 C42.8927491,18.677559 42.1363578,19.2208824 40.9644839,19.2208824 C39.7659765,19.2208824 38.9030512,18.6669056 38.8284774,17.5749322 L36.5965903,17.5749322 C36.655184,19.9346601 38.3437478,21.1544743 40.9911174,21.1544743 Z M50.4566717,21.159801 C52.4808175,21.159801 53.8444526,20.1743616 54.1640545,18.6562522 L52.065335,18.517758 C51.8362869,19.1409819 51.2503499,19.4659106 50.4939586,19.4659106 C49.3593716,19.4659106 48.6402672,18.7148459 48.6402672,17.4950318 L48.6402672,17.4897051 L54.2119948,17.4897051 L54.2119948,16.8664812 C54.2119948,14.0859441 52.5287578,12.7116556 50.3661178,12.7116556 C47.9584497,12.7116556 46.3977267,14.4215262 46.3977267,16.9463817 C46.3977267,19.5404843 47.9371429,21.159801 50.4566717,21.159801 Z M52.0759884,16.0834564 L48.6402672,16.0834564 C48.6882075,15.151284 49.3966585,14.4055461 50.4034047,14.4055461 C51.3888441,14.4055461 52.0706617,15.1086704 52.0759884,16.0834564 Z M57.9619998,21 L57.9619998,10.0909195 L55.6928258,10.0909195 L55.6928258,21 L57.9619998,21 Z M62.5482919,21 L62.5482919,14.5227334 L64.1729353,14.5227334 L64.1729353,12.8181896 L62.5482919,12.8181896 L62.5482919,12.2695396 C62.5482919,11.7155628 62.7720133,11.3906342 63.4378508,11.3906342 C63.7095124,11.3906342 63.9865008,11.4492279 64.1676086,11.5078216 L64.567111,9.80327772 C64.284796,9.71805053 63.6615721,9.57955635 62.9637745,9.57955635 C61.4243584,9.57955635 60.279118,10.4478084 60.279118,12.226926 L60.279118,12.8181896 L59.1232242,12.8181896 L59.1232242,14.5227334 L60.279118,14.5227334 L60.279118,21 L62.5482919,21 Z M70.655534,17.420458 L70.655534,15.6200335 L65.6803967,15.6200335 L65.6803967,17.420458 L70.655534,17.420458 Z M74.8583066,21 L74.8583066,16.2698909 C74.8636333,15.2152044 75.508164,14.5973072 76.4350097,14.5973072 C77.3565287,14.5973072 77.899852,15.1885709 77.8945253,16.1953171 L77.8945253,21 L80.1637181,21 L80.1637181,15.7904879 C80.169026,13.8728761 79.0397657,12.7116556 77.3352219,12.7116556 C76.0941009,12.7116556 75.2631358,13.2975926 74.8902668,14.2617252 L74.7943862,14.2617252 L74.7943862,10.0909195 L72.5891327,10.0909195 L72.5891327,21 L74.8583066,21 Z M85.6502087,21.159801 C88.1324506,21.159801 89.6771935,19.4605839 89.6771935,16.941055 C89.6771935,14.4055461 88.1324506,12.7116556 85.6502087,12.7116556 C83.1679667,12.7116556 81.6232239,14.4055461 81.6232239,16.941055 C81.6232239,19.4605839 83.1679667,21.159801 85.6502087,21.159801 Z M85.6608621,19.4019902 C84.5156217,19.4019902 83.9296848,18.3526304 83.9296848,16.9250749 C83.9296848,15.4975195 84.5156217,14.442833 85.6608621,14.442833 C86.7847957,14.442833 87.3707326,15.4975195 87.3707326,16.9250749 C87.3707326,18.3526304 86.7847957,19.4019902 85.6608621,19.4019902 Z M94.5085187,21.159801 C96.6285451,21.159801 98.1466544,20.078481 98.1519811,18.4644911 C98.1466544,17.2819638 97.374283,16.5735127 95.7869265,16.2485841 L94.3061041,15.9502889 C93.5443861,15.7851612 93.262071,15.5241529 93.2673977,15.1299772 C93.262071,14.6399208 93.8160477,14.3203189 94.5191721,14.3203189 C95.3075236,14.3203189 95.7762731,14.7517815 95.8881338,15.2791248 L97.9655466,15.151284 C97.763132,13.643828 96.5486446,12.7116556 94.4818852,12.7116556 C92.3884923,12.7116556 91.0088771,13.6811149 91.0142038,15.257818 C91.0088771,16.4829589 91.7812485,17.2766371 93.3792584,17.596239 L94.7961604,17.8785541 C95.5099382,18.022375 95.8348668,18.2833833 95.8455202,18.6935391 C95.8348668,19.1782688 95.3075236,19.5245042 94.5138454,19.5245042 C93.704187,19.5245042 93.1661904,19.1782688 93.0276962,18.5124313 L90.7958091,18.6296187 C91.0088771,20.1956684 92.340552,21.159801 94.5085187,21.159801 Z M102.855465,21.1118607 C103.441402,21.0905539 103.856884,20.9733665 104.085932,20.8987927 L103.729043,19.210229 C103.617183,19.2315358 103.377481,19.2848028 103.164413,19.2848028 C102.711644,19.2848028 102.397369,19.1143484 102.397369,18.4857979 L102.397369,14.5227334 L103.936785,14.5227334 L103.936785,12.8181896 L102.397369,12.8181896 L102.397369,10.8579642 L100.128195,10.8579642 L100.128195,12.8181896 L99.0095878,12.8181896 L99.0095878,14.5227334 L100.128195,14.5227334 L100.128195,18.784093 C100.117541,20.3874296 101.209515,21.1811078 102.855465,21.1118607 Z M109.140976,21.159801 C111.165121,21.159801 112.528757,20.1743616 112.848359,18.6562522 L110.749639,18.517758 C110.520591,19.1409819 109.934654,19.4659106 109.178263,19.4659106 C108.043676,19.4659106 107.324571,18.7148459 107.324571,17.4950318 L107.324571,17.4897051 L112.896299,17.4897051 L112.896299,16.8664812 C112.896299,14.0859441 111.213062,12.7116556 109.050422,12.7116556 C106.642754,12.7116556 105.082031,14.4215262 105.082031,16.9463817 C105.082031,19.5404843 106.621447,21.159801 109.140976,21.159801 Z M110.760292,16.0834564 L107.324571,16.0834564 C107.372511,15.151284 108.080963,14.4055461 109.087709,14.4055461 C110.073148,14.4055461 110.754966,15.1086704 110.760292,16.0834564 Z M117.392042,21.1331675 C118.713063,21.1331675 119.400207,20.3714495 119.714483,19.6896319 L119.810363,19.6896319 L119.810363,21 L122.047577,21 L122.047577,10.0909195 L119.78373,10.0909195 L119.78373,14.1924781 L119.714483,14.1924781 C119.410861,13.5266406 118.755677,12.7116556 117.386715,12.7116556 C115.591617,12.7116556 114.073508,14.1072509 114.073508,16.9197482 C114.073508,19.6576717 115.527697,21.1331675 117.392042,21.1331675 Z M118.111146,19.3274164 C116.997866,19.3274164 116.390622,18.3366503 116.390622,16.9090948 C116.390622,15.4921928 116.987213,14.5174068 118.111146,14.5174068 C119.213773,14.5174068 119.83167,15.4495792 119.83167,16.9090948 C119.83167,18.3686105 119.20312,19.3274164 118.111146,19.3274164 Z M134.799708,21 L134.799708,19.0983683 L129.734017,19.0983683 L129.734017,16.4936123 L134.400206,16.4936123 L134.400206,14.5919805 L129.734017,14.5919805 L129.734017,11.9925512 L134.778401,11.9925512 L134.778401,10.0909195 L127.427556,10.0909195 L127.427556,21 L134.799708,21 Z M138.842682,21 L138.842682,16.0887831 C138.842682,15.1832442 139.417965,14.5813271 140.174356,14.5813271 C140.920094,14.5813271 141.420804,15.0926903 141.420804,15.8970219 L141.420804,21 L143.620731,21 L143.620731,16.0035559 C143.620731,15.1566107 144.105461,14.5813271 144.931099,14.5813271 C145.65553,14.5813271 146.198854,15.0340966 146.198854,15.9449622 L146.198854,21 L148.462701,21 L148.462701,15.4975195 C148.462701,13.7237285 147.408014,12.7116556 145.884578,12.7116556 C144.686071,12.7116556 143.753899,13.3242261 143.418316,14.2617252 L143.333089,14.2617252 C143.072081,13.3135727 142.235789,12.7116556 141.111856,12.7116556 C140.009229,12.7116556 139.172937,13.2975926 138.832028,14.2617252 L138.736148,14.2617252 L138.736148,12.8181896 L136.573508,12.8181896 L136.573508,21 L138.842682,21 Z M152.585579,21.1544743 C153.79474,21.1544743 154.577765,20.627131 154.977267,19.865413 L155.041188,19.865413 L155.041188,21 L157.193174,21 L157.193174,15.4815394 C157.193174,13.5319673 155.541898,12.7116556 153.720166,12.7116556 C151.759941,12.7116556 150.47088,13.6491547 150.156604,15.1406306 L152.255324,15.311085 C152.409798,14.7677616 152.894528,14.3682592 153.709513,14.3682592 C154.481884,14.3682592 154.924,14.7571082 154.924,15.4282724 L154.924,15.4602326 C154.924,15.9875758 154.364697,16.0568229 152.942468,16.1953171 C151.323152,16.3444647 149.868963,16.887788 149.868963,18.7148459 C149.868963,20.3341626 151.024856,21.1544743 152.585579,21.1544743 Z M153.235437,19.5884246 C152.537639,19.5884246 152.036929,19.263496 152.036929,18.6402721 C152.036929,18.0010682 152.564272,17.6867929 153.363277,17.5749322 C153.85866,17.5056852 154.668319,17.3884978 154.93998,17.20739 L154.93998,18.075642 C154.93998,18.9332406 154.231529,19.5884246 153.235437,19.5884246 Z M160.096234,11.7635031 C160.772725,11.7635031 161.326701,11.2468133 161.326701,10.612936 C161.326701,9.98438551 160.772725,9.46769566 160.096234,9.46769566 C159.42507,9.46769566 158.871093,9.98438551 158.871093,10.612936 C158.871093,11.2468133 159.42507,11.7635031 160.096234,11.7635031 Z M161.225494,21 L161.225494,12.8181896 L158.95632,12.8181896 L158.95632,21 L161.225494,21 Z M165.30575,21 L165.30575,10.0909195 L163.036576,10.0909195 L163.036576,21 L165.30575,21 Z M175.59694,21.1491476 C178.350844,21.1491476 180.316396,19.4073169 180.316396,16.5362258 L180.316396,15.1619374 L175.751415,15.1619374 L175.751415,16.8984414 L178.095162,16.8984414 C178.063202,18.2514231 177.141683,19.1090217 175.607594,19.1090217 C173.876416,19.1090217 172.784443,17.8146337 172.784443,15.5348063 C172.784443,13.2656324 173.91903,11.9818978 175.586287,11.9818978 C176.774141,11.9818978 177.578473,12.5944682 177.871441,13.6171945 L180.215189,13.6171945 C179.916894,11.4598813 178.015262,9.94177191 175.549,9.94177191 C172.667256,9.94177191 170.446022,12.0191847 170.446022,15.5561131 C170.446022,19.0078144 172.523435,21.1491476 175.59694,21.1491476 Z M184.774854,21.106534 C186.005322,21.106534 186.889554,20.4726568 187.257096,19.5138508 L187.342324,19.5138508 L187.342324,21 L189.520944,21 L189.520944,12.8181896 L187.25177,12.8181896 L187.25177,17.5163385 C187.257096,18.6136386 186.506032,19.1889222 185.691047,19.1889222 C184.833448,19.1889222 184.279471,18.5870051 184.274145,17.6228725 L184.274145,12.8181896 L182.004971,12.8181896 L182.004971,18.0277017 C182.010297,19.9399868 183.128904,21.106534 184.774854,21.106534 Z M192.471944,11.7635031 C193.148435,11.7635031 193.702412,11.2468133 193.702412,10.612936 C193.702412,9.98438551 193.148435,9.46769566 192.471944,9.46769566 C191.80078,9.46769566 191.246803,9.98438551 191.246803,10.612936 C191.246803,11.2468133 191.80078,11.7635031 192.471944,11.7635031 Z M193.601204,21 L193.601204,12.8181896 L191.33203,12.8181896 L191.33203,21 L193.601204,21 Z M198.427198,21.1331675 C199.748219,21.1331675 200.435364,20.3714495 200.749639,19.6896319 L200.84552,19.6896319 L200.84552,21 L203.082733,21 L203.082733,10.0909195 L200.818886,10.0909195 L200.818886,14.1924781 L200.749639,14.1924781 C200.446017,13.5266406 199.790833,12.7116556 198.421871,12.7116556 C196.626774,12.7116556 195.108664,14.1072509 195.108664,16.9197482 C195.108664,19.6576717 196.562853,21.1331675 198.427198,21.1331675 Z M199.146302,19.3274164 C198.033022,19.3274164 197.425778,18.3366503 197.425778,16.9090948 C197.425778,15.4921928 198.022369,14.5174068 199.146302,14.5174068 C200.248929,14.5174068 200.866826,15.4495792 200.866826,16.9090948 C200.866826,18.3686105 200.238276,19.3274164 199.146302,19.3274164 Z M208.67045,21.159801 C210.694596,21.159801 212.058231,20.1743616 212.377833,18.6562522 L210.279113,18.517758 C210.050065,19.1409819 209.464128,19.4659106 208.707737,19.4659106 C207.57315,19.4659106 206.854046,18.7148459 206.854046,17.4950318 L206.854046,17.4897051 L212.425773,17.4897051 L212.425773,16.8664812 C212.425773,14.0859441 210.742536,12.7116556 208.579896,12.7116556 C206.172228,12.7116556 204.611505,14.4215262 204.611505,16.9463817 C204.611505,19.5404843 206.150921,21.159801 208.67045,21.159801 Z M210.289767,16.0834564 L206.854046,16.0834564 C206.901986,15.151284 207.610437,14.4055461 208.617183,14.4055461 C209.602623,14.4055461 210.28444,15.1086704 210.289767,16.0834564 Z" id="Self-hostedEmailGuide" fill="#FFFFFF"></path>
            <g id="icons8-delivered-mail">
                <path d="M3.59349151,24.3251733 C1.60325006,24.3251733 0,22.7219232 0,20.7316818 L0,7.18698302 C0,6.7170649 0.359349151,6.35771575 0.829267271,6.35771575 C1.29918539,6.35771575 1.65853454,6.7170649 1.65853454,7.18698302 L1.65853454,20.7316818 C1.65853454,21.8097292 2.51544406,22.6666387 3.59349151,22.6666387 C4.06340963,22.6666387 4.42275878,23.0259879 4.42275878,23.495906 C4.42275878,23.9658241 4.06340963,24.3251733 3.59349151,24.3251733 Z M25.7072854,24.3251733 C25.2373673,24.3251733 24.8780181,23.9658241 24.8780181,23.495906 C24.8780181,23.0259879 25.2373673,22.6666387 25.7072854,22.6666387 C26.7853329,22.6666387 27.6422424,21.782087 27.6422424,21.0081042 L27.6422424,7.18698302 C27.6422424,6.7170649 28.0015915,6.35771575 28.4715096,6.35771575 C28.9414278,6.35771575 29.3007769,6.7170649 29.3007769,7.18698302 L29.3007769,21.0081042 C29.3007769,22.7772077 27.6146001,24.3251733 25.7072854,24.3251733 Z M14.6503885,13.5446988 C10.72519,13.5446988 7.07641405,11.9967332 4.36747429,9.14958223 C4.06340963,8.81787532 4.06340963,8.29267271 4.39511654,7.98860805 C4.72682345,7.68454338 5.25202605,7.68454338 5.55609072,8.01625029 C7.9609658,10.5040521 11.1674659,11.8861642 14.6227462,11.8861642 C18.0780265,11.8861642 21.3121689,10.5040521 23.6894017,8.01625029 C23.9934664,7.68454338 24.518669,7.68454338 24.8503759,7.98860805 C25.1820828,8.29267271 25.1820828,8.81787532 24.8780181,9.14958223 C22.2243629,11.9967332 18.5755869,13.5446988 14.6503885,13.5446988 Z" id="Shape" fill="#ADB6C2"></path>
                <path d="M28.4715096,4.42275878 C28.0015915,4.42275878 27.6422424,4.06340963 27.6422424,3.59349151 C27.6422424,2.51544406 26.7853329,1.65853454 25.7072854,1.65853454 L3.59349151,1.65853454 C2.51544406,1.65853454 1.65853454,2.51544406 1.65853454,3.59349151 C1.65853454,4.06340963 1.29918539,4.42275878 0.829267271,4.42275878 C0.359349151,4.42275878 0,4.06340963 0,3.59349151 C0,1.60325006 1.60325006,0 3.59349151,0 L25.7072854,0 C27.6975269,0 29.3007769,1.60325006 29.3007769,3.59349151 C29.3007769,4.06340963 28.9414278,4.42275878 28.4715096,4.42275878 Z" id="Path" fill="#ADB6C2"></path>
                <g id="Group" transform="translate(0.000000, 18.520302)" fill="#3A66DB">
                    <path d="M6.35771575,11.0568969 L0.829267271,11.0568969 C0.359349151,11.0568969 0,10.6975478 0,10.2276297 C0,9.75771156 0.359349151,9.39836241 0.829267271,9.39836241 L6.35771575,9.39836241 C6.82763387,9.39836241 7.18698302,9.75771156 7.18698302,10.2276297 C7.18698302,10.6975478 6.82763387,11.0568969 6.35771575,11.0568969 Z M28.4715096,11.0568969 L14.6503885,11.0568969 C14.1804703,11.0568969 13.8211212,10.6975478 13.8211212,10.2276297 C13.8211212,9.75771156 14.1804703,9.39836241 14.6503885,9.39836241 L26.4812682,9.39836241 C26.1772035,9.0666555 26.2048458,8.56909514 26.5089104,8.26503047 C26.8406173,7.93332356 27.3658199,7.93332356 27.6698846,8.26503047 L29.0519967,9.64714259 C29.3007769,9.89592277 29.3560614,10.2276297 29.2454924,10.5593366 C29.1349235,10.8910435 28.8032166,11.0568969 28.4715096,11.0568969 Z" id="Shape"></path>
                    <path d="M14.6503885,11.0568969 C11.6097418,11.0568969 9.12193998,8.56909514 9.12193998,5.52844847 C9.12193998,2.48780181 11.6097418,0 14.6503885,0 C17.6910351,0 20.1788369,2.48780181 20.1788369,5.52844847 C20.1788369,6.10893556 20.0959102,6.68942265 19.9024145,7.2422675 C19.7642033,7.68454338 19.2942852,7.90568132 18.8520093,7.76747011 C18.4097334,7.62925889 18.1885955,7.15934077 18.3268067,6.7170649 C18.4650179,6.35771575 18.5203024,5.94308211 18.5203024,5.52844847 C18.5203024,3.39999581 16.7788411,1.65853454 14.6503885,1.65853454 C12.5219358,1.65853454 10.7804745,3.39999581 10.7804745,5.52844847 C10.7804745,7.65690114 12.5219358,9.39836241 14.6503885,9.39836241 C15.1203066,9.39836241 15.4796557,9.75771156 15.4796557,10.2276297 C15.4796557,10.6975478 15.1203066,11.0568969 14.6503885,11.0568969 Z M27.0893975,12.4390091 C26.8682596,12.4390091 26.6747639,12.3560823 26.5089104,12.1902289 C26.1772035,11.858522 26.1772035,11.3333194 26.5089104,11.0292547 L27.8910226,9.64714259 C28.2227295,9.31543568 28.7479321,9.31543568 29.0519967,9.64714259 C29.3837036,9.9788495 29.3837036,10.5040521 29.0519967,10.8081168 L27.6698846,12.1902289 C27.5040312,12.3560823 27.3105355,12.4390091 27.0893975,12.4390091 Z" id="Shape"></path>
                </g>
            </g>
        </g>
    </g>
</svg>