<?xml version="1.0" encoding="UTF-8"?>
<svg width="218px" height="33px" viewBox="0 0 218 33" version="1.1" xmlns="http://www.w3.org/2000/svg" xmlns:xlink="http://www.w3.org/1999/xlink">
    <title>nuxt: logo-dark</title>
    <g id="nuxt:-logo-dark" stroke="none" stroke-width="1" fill="none" fill-rule="evenodd">
        <g id="Logo" transform="translate(1.000000, 1.000000)">
            <text id="Self-hosted-Email-Gu" font-family="Inter-Bold, Inter" font-size="15" font-weight="bold" fill="#FFFFFF">
                <tspan x="36" y="21">Self-hosted Email Guide</tspan>
            </text>
            <g id="icons8-delivered-mail" fill-rule="nonzero">
                <path d="M3.59349151,24.3251733 C1.60325006,24.3251733 0,22.7219232 0,20.7316818 L0,7.18698302 C0,6.7170649 0.359349151,6.35771575 0.829267271,6.35771575 C1.29918539,6.35771575 1.65853454,6.7170649 1.65853454,7.18698302 L1.65853454,20.7316818 C1.65853454,21.8097292 2.51544406,22.6666387 3.59349151,22.6666387 C4.06340963,22.6666387 4.42275878,23.0259879 4.42275878,23.495906 C4.42275878,23.9658241 4.06340963,24.3251733 3.59349151,24.3251733 Z M25.7072854,24.3251733 C25.2373673,24.3251733 24.8780181,23.9658241 24.8780181,23.495906 C24.8780181,23.0259879 25.2373673,22.6666387 25.7072854,22.6666387 C26.7853329,22.6666387 27.6422424,21.782087 27.6422424,21.0081042 L27.6422424,7.18698302 C27.6422424,6.7170649 28.0015915,6.35771575 28.4715096,6.35771575 C28.9414278,6.35771575 29.3007769,6.7170649 29.3007769,7.18698302 L29.3007769,21.0081042 C29.3007769,22.7772077 27.6146001,24.3251733 25.7072854,24.3251733 Z M14.6503885,13.5446988 C10.72519,13.5446988 7.07641405,11.9967332 4.36747429,9.14958223 C4.06340963,8.81787532 4.06340963,8.29267271 4.39511654,7.98860805 C4.72682345,7.68454338 5.25202605,7.68454338 5.55609072,8.01625029 C7.9609658,10.5040521 11.1674659,11.8861642 14.6227462,11.8861642 C18.0780265,11.8861642 21.3121689,10.5040521 23.6894017,8.01625029 C23.9934664,7.68454338 24.518669,7.68454338 24.8503759,7.98860805 C25.1820828,8.29267271 25.1820828,8.81787532 24.8780181,9.14958223 C22.2243629,11.9967332 18.5755869,13.5446988 14.6503885,13.5446988 Z" id="Shape" fill="#ADB6C2"></path>
                <path d="M28.4715096,4.42275878 C28.0015915,4.42275878 27.6422424,4.06340963 27.6422424,3.59349151 C27.6422424,2.51544406 26.7853329,1.65853454 25.7072854,1.65853454 L3.59349151,1.65853454 C2.51544406,1.65853454 1.65853454,2.51544406 1.65853454,3.59349151 C1.65853454,4.06340963 1.29918539,4.42275878 0.829267271,4.42275878 C0.359349151,4.42275878 0,4.06340963 0,3.59349151 C0,1.60325006 1.60325006,0 3.59349151,0 L25.7072854,0 C27.6975269,0 29.3007769,1.60325006 29.3007769,3.59349151 C29.3007769,4.06340963 28.9414278,4.42275878 28.4715096,4.42275878 Z" id="Path" fill="#ADB6C2"></path>
                <g id="Group" transform="translate(0.000000, 18.520302)" fill="#3A66DB">
                    <path d="M6.35771575,11.0568969 L0.829267271,11.0568969 C0.359349151,11.0568969 0,10.6975478 0,10.2276297 C0,9.75771156 0.359349151,9.39836241 0.829267271,9.39836241 L6.35771575,9.39836241 C6.82763387,9.39836241 7.18698302,9.75771156 7.18698302,10.2276297 C7.18698302,10.6975478 6.82763387,11.0568969 6.35771575,11.0568969 Z M28.4715096,11.0568969 L14.6503885,11.0568969 C14.1804703,11.0568969 13.8211212,10.6975478 13.8211212,10.2276297 C13.8211212,9.75771156 14.1804703,9.39836241 14.6503885,9.39836241 L26.4812682,9.39836241 C26.1772035,9.0666555 26.2048458,8.56909514 26.5089104,8.26503047 C26.8406173,7.93332356 27.3658199,7.93332356 27.6698846,8.26503047 L29.0519967,9.64714259 C29.3007769,9.89592277 29.3560614,10.2276297 29.2454924,10.5593366 C29.1349235,10.8910435 28.8032166,11.0568969 28.4715096,11.0568969 Z" id="Shape"></path>
                    <path d="M14.6503885,11.0568969 C11.6097418,11.0568969 9.12193998,8.56909514 9.12193998,5.52844847 C9.12193998,2.48780181 11.6097418,0 14.6503885,0 C17.6910351,0 20.1788369,2.48780181 20.1788369,5.52844847 C20.1788369,6.10893556 20.0959102,6.68942265 19.9024145,7.2422675 C19.7642033,7.68454338 19.2942852,7.90568132 18.8520093,7.76747011 C18.4097334,7.62925889 18.1885955,7.15934077 18.3268067,6.7170649 C18.4650179,6.35771575 18.5203024,5.94308211 18.5203024,5.52844847 C18.5203024,3.39999581 16.7788411,1.65853454 14.6503885,1.65853454 C12.5219358,1.65853454 10.7804745,3.39999581 10.7804745,5.52844847 C10.7804745,7.65690114 12.5219358,9.39836241 14.6503885,9.39836241 C15.1203066,9.39836241 15.4796557,9.75771156 15.4796557,10.2276297 C15.4796557,10.6975478 15.1203066,11.0568969 14.6503885,11.0568969 Z M27.0893975,12.4390091 C26.8682596,12.4390091 26.6747639,12.3560823 26.5089104,12.1902289 C26.1772035,11.858522 26.1772035,11.3333194 26.5089104,11.0292547 L27.8910226,9.64714259 C28.2227295,9.31543568 28.7479321,9.31543568 29.0519967,9.64714259 C29.3837036,9.9788495 29.3837036,10.5040521 29.0519967,10.8081168 L27.6698846,12.1902289 C27.5040312,12.3560823 27.3105355,12.4390091 27.0893975,12.4390091 Z" id="Shape"></path>
                </g>
            </g>
        </g>
    </g>
</svg>