<svg width="12" height="12" viewBox="0 0 12 12" fill="none" xmlns="http://www.w3.org/2000/svg">
<path d="M6.00008 0.166687C2.77833 0.166687 0.166748 2.77827 0.166748 6.00002C0.166748 9.22177 2.77833 11.8334 6.00008 11.8334C9.22183 11.8334 11.8334 9.22177 11.8334 6.00002C11.8334 2.77827 9.22183 0.166687 6.00008 0.166687ZM7.50858 8.33335L5.58766 6.41244C5.478 6.30277 5.41675 6.1546 5.41675 6.00002V3.08335C5.41675 2.76135 5.67808 2.50002 6.00008 2.50002C6.32208 2.50002 6.58341 2.76135 6.58341 3.08335V5.75852L8.33341 7.50852C8.56091 7.73602 8.56091 8.10585 8.33341 8.33335C8.10591 8.56085 7.73608 8.56085 7.50858 8.33335Z" fill="#323F4B"/>
</svg>
