<svg width="12" height="12" viewBox="0 0 12 12" fill="none" xmlns="http://www.w3.org/2000/svg">
<path d="M4.25 0.75C3.928 0.75 3.66667 1.01133 3.66667 1.33333C3.66667 1.65533 3.928 1.91667 4.25 1.91667V4.83333L0.999512 9.36784H1.00179C0.846624 9.56559 0.75 9.81208 0.75 10.0833C0.75 10.7279 1.27208 11.25 1.91667 11.25H10.0833C10.7279 11.25 11.25 10.7279 11.25 10.0833C11.25 9.81208 11.1534 9.56559 10.9982 9.36784H11.0005L7.75 4.83333V1.91667C8.072 1.91667 8.33333 1.65533 8.33333 1.33333C8.33333 1.01133 8.072 0.75 7.75 0.75H4.25ZM5.41667 1.91667H6.58333V4.83333H5.41667V1.91667ZM6.58333 6.58333C6.90533 6.58333 7.16667 6.84467 7.16667 7.16667C7.16667 7.48867 6.90533 7.75 6.58333 7.75C6.26133 7.75 6 7.48867 6 7.16667C6 6.84467 6.26133 6.58333 6.58333 6.58333ZM4.54167 8.33333C5.02467 8.33333 5.41667 8.72533 5.41667 9.20833C5.41667 9.69133 5.02467 10.0833 4.54167 10.0833C4.05867 10.0833 3.66667 9.69133 3.66667 9.20833C3.66667 8.72533 4.05867 8.33333 4.54167 8.33333Z" fill="#323F4B"/>
</svg>
